<svg id="Capa_1" enable-background="new 0 0 512 512" height="512" viewBox="0 0 512 512" width="512" xmlns="http://www.w3.org/2000/svg"><g><path d="m262.709 287.582-49.365-24.682 27.246-114.434c.952-4.014.22-8.247-2.051-11.704-1.626-2.476-40.723-60.762-117.539-60.762-67.295 0-121 59.297-121 135 0 53.32 29.345 157.119 219.218 253.374 4.175 2.13 9.144 2.164 13.33.117 4.219-2.051 7.236-5.947 8.159-10.547l30-150c1.333-6.635-1.948-13.329-7.998-16.362z"/><path d="m391 46c-76.816 0-115.913 58.286-117.539 60.762-.952 1.465-1.655 3.062-2.051 4.761l-30 126.006c-1.611 6.782 1.655 13.77 7.881 16.89l49.746 24.873-27.744 138.765c-1.128 5.64 1.055 11.411 5.64 14.883 4.579 3.492 10.728 4.03 15.85 1.436 189.872-96.257 219.217-200.055 219.217-253.376 0-75.703-53.705-135-121-135z"/></g></svg>